
<!-- Generator: visioncortex VTracer 0.6.4 -->
<svg version="1.1" xmlns="http://www.w3.org/2000/svg" viewBox="0 0 1080 308" preserveAspectRatio="xMidYMid meet">
<path d="M0 0 C9.746 -0.093 19.492 -0.164 29.238 -0.207 C33.765 -0.228 38.292 -0.256 42.82 -0.302 C47.203 -0.346 51.586 -0.369 55.969 -0.38 C57.627 -0.387 59.285 -0.401 60.943 -0.423 C81.671 -0.685 100.449 3.601 116.531 17.555 C129.546 30.446 135.958 47.898 136.241 66.016 C136.311 86.7 131.247 104.362 116.75 119.688 C100.584 135.145 80.866 138.331 59.434 138.23 C57.746 138.229 56.059 138.229 54.372 138.229 C50.858 138.228 47.344 138.219 43.83 138.206 C39.317 138.189 34.804 138.185 30.292 138.186 C26.818 138.185 23.345 138.18 19.871 138.173 C18.206 138.17 16.54 138.168 14.875 138.167 C12.56 138.165 10.246 138.156 7.931 138.145 C6.614 138.141 5.296 138.138 3.938 138.134 C1 138 1 138 0 137 C-0.096 135.228 -0.122 133.453 -0.12 131.679 C-0.122 130.525 -0.123 129.37 -0.124 128.181 C-0.121 126.904 -0.117 125.626 -0.114 124.31 C-0.113 122.96 -0.113 121.611 -0.114 120.261 C-0.114 116.585 -0.108 112.91 -0.101 109.234 C-0.095 105.397 -0.095 101.56 -0.093 97.723 C-0.09 90.452 -0.082 83.181 -0.072 75.911 C-0.061 67.635 -0.055 59.359 -0.05 51.084 C-0.04 34.056 -0.022 17.028 0 0 Z M44 37 C44 58.12 44 79.24 44 101 C65.281 101.942 65.281 101.942 82.719 92.363 C89.709 84.74 91.318 76.325 91.219 66.203 C90.593 57.048 87.881 49.708 81.188 43.312 C69.897 35.121 57.747 37 44 37 Z " fill="#E73C36" transform="translate(187,63)"/>
<path d="M0 0 C0.779 0.002 1.559 0.004 2.362 0.007 C3.243 0.007 4.124 0.007 5.031 0.007 C5.988 0.012 6.946 0.017 7.932 0.023 C9.395 0.025 9.395 0.025 10.887 0.027 C14.015 0.033 17.144 0.045 20.272 0.058 C22.387 0.063 24.502 0.067 26.618 0.071 C31.815 0.082 37.012 0.099 42.209 0.12 C44.914 5.398 47.35 10.684 49.545 16.191 C49.857 16.964 50.169 17.738 50.49 18.535 C51.167 20.218 51.844 21.902 52.519 23.586 C54.39 28.256 56.274 32.922 58.155 37.589 C58.557 38.587 58.958 39.585 59.373 40.613 C63.896 51.839 68.465 63.047 73.036 74.254 C74.453 77.73 75.868 81.206 77.283 84.682 C82.879 98.429 82.879 98.429 88.525 112.156 C89.785 115.206 91.041 118.258 92.297 121.311 C93.124 123.314 93.959 125.314 94.794 127.314 C95.27 128.472 95.746 129.63 96.237 130.823 C96.647 131.81 97.056 132.796 97.479 133.813 C98.209 136.12 98.209 136.12 97.209 138.12 C82.359 138.12 67.509 138.12 52.209 138.12 C49.043 130.521 46.023 122.857 43.209 115.12 C27.699 114.79 12.189 114.46 -3.791 114.12 C-4.121 115.77 -4.451 117.42 -4.791 119.12 C-7.101 125.39 -9.411 131.66 -11.791 138.12 C-26.641 138.12 -41.491 138.12 -56.791 138.12 C-56.099 133.971 -55.608 131.229 -54.099 127.523 C-53.748 126.654 -53.398 125.786 -53.037 124.891 C-52.653 123.956 -52.269 123.021 -51.873 122.058 C-51.468 121.058 -51.063 120.059 -50.645 119.03 C-49.304 115.724 -47.953 112.422 -46.603 109.12 C-45.661 106.803 -44.719 104.486 -43.778 102.168 C-41.547 96.68 -39.311 91.194 -37.072 85.709 C-34.329 78.99 -31.591 72.268 -28.853 65.546 C-26.048 58.658 -23.241 51.769 -20.429 44.884 C-19.566 42.771 -18.704 40.659 -17.841 38.546 C-17.427 37.531 -17.013 36.517 -16.586 35.472 C-14.355 29.997 -12.146 24.514 -9.96 19.02 C-9.499 17.862 -9.038 16.704 -8.563 15.511 C-7.676 13.278 -6.791 11.044 -5.909 8.809 C-5.515 7.815 -5.12 6.821 -4.713 5.797 C-4.365 4.916 -4.017 4.035 -3.659 3.127 C-2.375 0.16 -2.375 0.16 0 0 Z M19.209 49.12 C17.781 53.07 16.357 57.021 14.937 60.973 C14.453 62.318 13.968 63.662 13.482 65.006 C12.784 66.937 12.09 68.868 11.397 70.8 C10.978 71.963 10.559 73.125 10.127 74.323 C9.105 76.946 9.105 76.946 9.209 79.12 C16.469 79.12 23.729 79.12 31.209 79.12 C29.829 75.006 28.444 70.894 27.047 66.785 C26.573 65.386 26.101 63.986 25.633 62.586 C24.959 60.575 24.277 58.568 23.592 56.562 C22.979 54.747 22.979 54.747 22.354 52.896 C21.515 50 21.515 50 19.209 49.12 Z " fill="#89144C" transform="translate(83.79066467285156,62.87974548339844)"/>
<path d="M0 0 C17.492 -0.567 37.597 2.518 52.52 12.16 C51.635 18.648 49.328 24.462 46.964 30.521 C46.205 32.479 45.468 34.445 44.732 36.412 C44.25 37.658 43.766 38.904 43.281 40.148 C42.848 41.278 42.414 42.408 41.968 43.572 C40.52 46.16 40.52 46.16 38.498 47.092 C35.68 47.189 33.955 46.19 31.457 44.91 C19.243 39.079 4.759 35.709 -8.48 40.16 C-10.432 41.303 -10.432 41.303 -11.48 43.16 C-11.422 45.686 -11.422 45.686 -10.48 48.16 C-4.264 52.386 4.482 53.454 11.707 55.035 C27.553 58.703 43.755 62.582 53.02 77.223 C59.006 88.301 59.631 100.07 56.52 112.16 C51.804 124.519 44.418 133.275 32.52 139.16 C7.417 148.935 -21.873 147.79 -46.691 137.465 C-50.749 135.567 -54.637 133.457 -58.48 131.16 C-56.341 123.421 -53.592 116.022 -50.543 108.598 C-50.113 107.506 -49.683 106.415 -49.24 105.291 C-48.603 103.739 -48.603 103.739 -47.953 102.156 C-47.574 101.22 -47.195 100.283 -46.805 99.318 C-45.48 97.16 -45.48 97.16 -43.477 96.283 C-40.513 96.101 -38.851 97.32 -36.293 98.785 C-25.374 104.443 -14.628 107.586 -2.293 107.66 C-1.503 107.666 -0.714 107.673 0.1 107.679 C4.949 107.572 8.269 106.709 12.52 104.16 C12.52 102.51 12.52 100.86 12.52 99.16 C5.714 95.335 -1.103 93.531 -8.668 91.723 C-21.27 88.702 -33.452 85.705 -43.48 77.16 C-44.367 76.541 -45.254 75.923 -46.168 75.285 C-53.306 68.726 -55.964 59.991 -56.801 50.543 C-57.222 36.808 -53.63 26.465 -44.48 16.16 C-32.459 4.513 -16.199 1.046 0 0 Z " fill="#E53C37" transform="translate(504.48046875,58.83984375)"/>
<path d="M0 0 C36.63 0 73.26 0 111 0 C111 34.39 111 34.39 104.625 48.5 C103.948 50.108 103.277 51.719 102.611 53.332 C101.191 56.757 99.747 60.17 98.285 63.578 C94.569 72.311 91.2 81.184 87.775 90.034 C85.96 94.715 84.124 99.389 82.289 104.062 C77.852 115.372 73.426 126.686 69 138 C53.16 138 37.32 138 21 138 C19.866 134.599 20.076 134.128 21.36 130.957 C21.687 130.136 22.014 129.316 22.351 128.471 C22.719 127.575 23.087 126.679 23.467 125.755 C23.847 124.809 24.227 123.862 24.619 122.887 C25.881 119.75 27.157 116.619 28.434 113.488 C29.31 111.318 30.186 109.148 31.061 106.977 C33.369 101.257 35.688 95.542 38.01 89.828 C40.376 84 42.732 78.167 45.088 72.334 C49.715 60.885 54.355 49.441 59 38 C52.07 37.67 45.14 37.34 38 37 C38.04 43.208 38.04 43.208 38.09 49.416 C38.093 50.185 38.095 50.954 38.098 51.746 C38.103 52.537 38.108 53.328 38.114 54.142 C38 56 38 56 37 57 C34.345 57.101 31.717 57.14 29.062 57.133 C27.87 57.134 27.87 57.134 26.653 57.136 C24.968 57.136 23.283 57.135 21.599 57.13 C19.011 57.125 16.424 57.13 13.836 57.137 C12.203 57.136 10.57 57.135 8.938 57.133 C8.158 57.135 7.379 57.137 6.576 57.139 C1.115 57.115 1.115 57.115 0 56 C-0.094 54.251 -0.117 52.498 -0.114 50.746 C-0.113 49.609 -0.113 48.472 -0.113 47.301 C-0.108 46.097 -0.103 44.893 -0.098 43.652 C-0.097 42.552 -0.096 41.453 -0.095 40.319 C-0.089 36.192 -0.075 32.065 -0.062 27.938 C-0.042 18.718 -0.021 9.499 0 0 Z " fill="#E63C37" transform="translate(330,63)"/>
<path d="M0 0 C1.435 0.601 1.435 0.601 2.898 1.215 C16.259 7.67 24.997 19.089 29.812 32.875 C34.517 47.874 33.39 65.614 26.375 79.625 C17.388 94.987 4.823 102.719 -11.876 107.542 C-28.093 111.04 -45.779 108.116 -59.938 99.75 C-73.203 90.502 -81.772 78.137 -84.707 62.083 C-87.041 45.489 -83.985 29.605 -73.773 16.043 C-56.129 -4.43 -24.899 -10.479 0 0 Z M-37 36 C-41.339 41.824 -42.505 47.42 -41.711 54.621 C-40.403 62.078 -38.272 66.497 -32 71 C-28.02 72.99 -23.991 72.317 -19.875 71 C-15.078 67.663 -12.071 62.763 -11 57 C-10.264 48.808 -11.126 41.449 -16.5 35 C-20.147 32.082 -23.242 31.641 -27.875 31.727 C-31.542 32.198 -34.209 33.605 -37 36 Z " fill="#D1303D" transform="translate(733,95)"/>
<path d="M0 0 C11.543 8.957 18.711 19.244 22.312 33.5 C23.367 41.937 23 50.497 23 59 C0.56 59.33 -21.88 59.66 -45 60 C-39.617 66.459 -37.347 68.36 -29.355 69.316 C-22.629 69.608 -17.864 68.159 -12 65 C-10.001 63.997 -8.002 62.997 -6 62 C-0.285 67.622 5.375 73.223 10.562 79.344 C11.96 81.054 11.96 81.054 13.75 82.406 C15 84 15 84 14.902 86.469 C12.781 92.421 6.551 95.905 1.188 98.75 C-8.348 103.083 -17.315 104.534 -27.75 104.438 C-28.889 104.431 -30.029 104.424 -31.203 104.417 C-43.477 104.184 -54.697 102.052 -65 95 C-65.746 94.497 -66.493 93.995 -67.262 93.477 C-79.679 84.495 -86.423 72.224 -89.496 57.387 C-91.914 41.137 -88.671 25.367 -78.844 12.086 C-60.093 -10.013 -24.791 -15.96 0 0 Z M-43 28 C-46.005 31.621 -46.005 31.621 -47 36 C-37.43 36 -27.86 36 -18 36 C-19.145 30.273 -20.127 29.058 -24 25 C-30.928 22.691 -37.449 22.978 -43 28 Z " fill="#89154B" transform="translate(943,99)"/>
<path d="M0 0 C14.19 0 28.38 0 43 0 C43 9.9 43 19.8 43 30 C49.6 30 56.2 30 63 30 C63 41.22 63 52.44 63 64 C56.4 64 49.8 64 43 64 C43.074 68.2 43.157 72.398 43.262 76.598 C43.296 78.025 43.324 79.453 43.346 80.881 C43.38 82.937 43.432 84.991 43.488 87.047 C43.514 88.283 43.541 89.519 43.568 90.792 C44.026 94.189 44.522 95.66 47 98 C51.368 98.477 54.212 98.164 58 96 C58.99 96 59.98 96 61 96 C62.291 99.893 63.573 103.789 64.845 107.688 C65.279 109.013 65.716 110.337 66.155 111.66 C66.787 113.567 67.409 115.477 68.031 117.387 C68.408 118.534 68.785 119.68 69.174 120.862 C69.934 123.749 70.175 126.037 70 129 C68.418 129.649 66.834 130.294 65.25 130.938 C64.368 131.297 63.487 131.657 62.578 132.027 C50.992 136.399 33.756 136.034 22.336 131.262 C12.934 126.183 5.973 118.975 2 109 C0.27 103.063 -0.281 97.404 -0.195 91.246 C-0.192 90.46 -0.19 89.673 -0.187 88.863 C-0.176 86.388 -0.151 83.913 -0.125 81.438 C-0.115 79.744 -0.106 78.051 -0.098 76.357 C-0.076 72.238 -0.041 68.119 0 64 C-1.39 64.017 -1.39 64.017 -2.809 64.035 C-4.006 64.044 -5.204 64.053 -6.438 64.062 C-7.632 64.074 -8.827 64.086 -10.059 64.098 C-13 64 -13 64 -14 63 C-14.088 60.552 -14.115 58.132 -14.098 55.684 C-14.096 54.953 -14.095 54.221 -14.093 53.468 C-14.088 51.125 -14.075 48.781 -14.062 46.438 C-14.057 44.852 -14.053 43.267 -14.049 41.682 C-14.038 37.788 -14.021 33.894 -14 30 C-9.38 30 -4.76 30 0 30 C0 20.1 0 10.2 0 0 Z " fill="#E73D36" transform="translate(577,69)"/>
<path d="M0 0 C0.495 1.485 0.495 1.485 1 3 C1.969 2.837 2.939 2.674 3.938 2.506 C8.3 1.886 12.597 1.874 16.996 1.902 C17.83 1.904 18.663 1.905 19.522 1.907 C22.161 1.912 24.799 1.925 27.438 1.938 C29.236 1.943 31.035 1.947 32.834 1.951 C37.223 1.962 41.611 1.979 46 2 C45.553 4.37 45.099 6.738 44.641 9.105 C44.454 10.099 44.454 10.099 44.264 11.113 C40.963 28.028 31.01 42.098 16.812 51.75 C1.857 60.778 -13.572 62.31 -30.566 62.23 C-32.254 62.229 -33.941 62.229 -35.628 62.229 C-39.142 62.228 -42.656 62.219 -46.17 62.206 C-50.683 62.189 -55.196 62.185 -59.708 62.186 C-63.182 62.185 -66.655 62.18 -70.129 62.173 C-71.794 62.17 -73.46 62.168 -75.125 62.167 C-77.44 62.165 -79.754 62.156 -82.069 62.145 C-83.386 62.141 -84.704 62.138 -86.062 62.134 C-89 62 -89 62 -90 61 C-90.094 59.159 -90.117 57.314 -90.114 55.47 C-90.113 54.289 -90.113 53.108 -90.113 51.891 C-90.108 50.606 -90.103 49.32 -90.098 47.996 C-90.096 46.688 -90.095 45.38 -90.093 44.032 C-90.09 40.548 -90.08 37.065 -90.069 33.581 C-90.058 30.029 -90.054 26.476 -90.049 22.924 C-90.038 15.949 -90.021 8.975 -90 2 C-84.073 1.951 -78.147 1.914 -72.22 1.89 C-70.204 1.88 -68.187 1.866 -66.171 1.849 C-63.274 1.825 -60.377 1.814 -57.48 1.805 C-56.577 1.794 -55.674 1.784 -54.743 1.773 C-53.903 1.773 -53.062 1.773 -52.196 1.773 C-51.457 1.769 -50.717 1.764 -49.955 1.759 C-48 2 -48 2 -45 4 C-44.749 6.69 -44.674 9.13 -44.75 11.812 C-44.755 12.525 -44.76 13.237 -44.766 13.971 C-44.822 17.773 -45.199 21.293 -46 25 C-41.873 24.807 -37.749 24.564 -33.625 24.312 C-31.891 24.232 -31.891 24.232 -30.121 24.15 C-20.945 23.554 -13.259 21.546 -6.625 14.875 C-3.198 10.484 -1.619 5.268 0 0 Z " fill="#89154C" transform="translate(277,139)"/>
<path d="M0 0 C0 13.2 0 26.4 0 40 C-3.014 41.507 -5.779 40.936 -9.125 40.812 C-15.142 40.726 -20.311 40.867 -25 45 C-29.225 50.244 -30.096 55.888 -30.205 62.433 C-30.225 63.494 -30.245 64.554 -30.266 65.647 C-30.291 67.347 -30.291 67.347 -30.316 69.082 C-30.337 70.251 -30.358 71.421 -30.379 72.625 C-30.445 76.354 -30.504 80.083 -30.562 83.812 C-30.606 86.343 -30.649 88.874 -30.693 91.404 C-30.8 97.603 -30.902 103.801 -31 110 C-36.963 110.025 -42.926 110.043 -48.889 110.055 C-50.92 110.06 -52.95 110.067 -54.98 110.075 C-57.892 110.088 -60.803 110.093 -63.715 110.098 C-65.085 110.105 -65.085 110.105 -66.483 110.113 C-68.656 110.113 -70.828 110.062 -73 110 C-74 109 -74 109 -74.123 107.206 C-74.122 106.418 -74.121 105.63 -74.12 104.818 C-74.122 103.916 -74.123 103.014 -74.124 102.085 C-74.121 101.088 -74.117 100.091 -74.114 99.064 C-74.114 98.02 -74.114 96.977 -74.114 95.901 C-74.113 92.433 -74.105 88.964 -74.098 85.496 C-74.096 83.099 -74.094 80.701 -74.093 78.303 C-74.09 71.979 -74.08 65.655 -74.069 59.33 C-74.058 52.882 -74.054 46.434 -74.049 39.986 C-74.038 27.324 -74.02 14.662 -74 2 C-60.47 2 -46.94 2 -33 2 C-32.505 5.96 -32.505 5.96 -32 10 C-31.562 9.613 -31.123 9.227 -30.672 8.828 C-20.937 0.834 -12.608 0 0 0 Z " fill="#89154C" transform="translate(850,91)"/>
<path d="M0 0 C0.779 0.002 1.559 0.004 2.362 0.007 C3.243 0.007 4.124 0.007 5.031 0.007 C5.988 0.012 6.946 0.017 7.932 0.023 C9.395 0.025 9.395 0.025 10.887 0.027 C14.015 0.033 17.144 0.045 20.272 0.058 C22.387 0.063 24.502 0.067 26.618 0.071 C31.815 0.082 37.012 0.099 42.209 0.12 C45.091 5.722 47.627 11.364 49.967 17.21 C50.312 18.064 50.657 18.919 51.013 19.799 C52.124 22.55 53.229 25.304 54.334 28.058 C55.096 29.952 55.857 31.846 56.619 33.74 C57.755 36.564 58.89 39.389 60.024 42.215 C62.183 47.589 64.369 52.952 66.584 58.304 C67.059 59.458 67.533 60.613 68.021 61.802 C68.874 63.875 69.734 65.945 70.604 68.011 C71.155 69.36 71.155 69.36 71.717 70.737 C72.033 71.497 72.349 72.256 72.675 73.038 C73.296 75.459 72.884 76.754 72.209 79.12 C66.692 79.145 61.174 79.163 55.657 79.175 C53.779 79.18 51.901 79.187 50.023 79.196 C47.327 79.208 44.632 79.213 41.936 79.218 C41.093 79.223 40.25 79.228 39.382 79.234 C33.437 79.234 33.437 79.234 31.209 78.12 C31.209 77.13 31.209 76.14 31.209 75.12 C30.549 75.12 29.889 75.12 29.209 75.12 C24.754 62.745 24.754 62.745 20.209 50.12 C14.764 64.475 14.764 64.475 9.209 79.12 C-3.991 79.12 -17.191 79.12 -30.791 79.12 C-32.791 75.12 -32.791 75.12 -32.339 72.947 C-32.01 72.161 -31.68 71.375 -31.34 70.565 C-30.972 69.664 -30.603 68.763 -30.224 67.835 C-29.807 66.863 -29.391 65.891 -28.963 64.89 C-28.542 63.874 -28.122 62.858 -27.689 61.812 C-26.32 58.513 -24.931 55.223 -23.541 51.933 C-22.606 49.691 -21.674 47.449 -20.743 45.206 C-18.919 40.817 -17.089 36.43 -15.255 32.045 C-11.873 23.941 -8.633 15.784 -5.421 7.612 C-4.902 6.301 -4.902 6.301 -4.373 4.964 C-4.086 4.234 -3.8 3.503 -3.505 2.751 C-2.37 0.159 -2.37 0.159 0 0 Z M-33.791 78.12 C-32.801 78.615 -32.801 78.615 -31.791 79.12 C-32.781 79.615 -32.781 79.615 -33.791 80.12 C-33.791 79.46 -33.791 78.8 -33.791 78.12 Z " fill="#E63C37" transform="translate(83.79066467285156,62.87974548339844)"/>
<path d="M0 0 C3 1 3 1 3 1 Z M14.842 -0.243 C15.628 -0.245 16.414 -0.247 17.223 -0.249 C19.817 -0.252 22.41 -0.242 25.004 -0.23 C26.807 -0.229 28.61 -0.229 30.413 -0.229 C34.19 -0.228 37.967 -0.219 41.744 -0.206 C46.588 -0.189 51.433 -0.185 56.278 -0.186 C60 -0.185 63.722 -0.18 67.444 -0.173 C69.231 -0.17 71.018 -0.168 72.804 -0.167 C75.299 -0.165 77.793 -0.156 80.287 -0.145 C81.398 -0.146 81.398 -0.146 82.531 -0.147 C85.627 -0.127 88.039 0.013 91 1 C95.191 10.08 94.431 20.555 92 30 C87.285 42.359 79.899 51.115 68 57 C42.897 66.775 13.607 65.63 -11.211 55.305 C-15.269 53.406 -19.156 51.296 -23 49 C-20.86 41.26 -18.111 33.862 -15.062 26.438 C-14.633 25.346 -14.203 24.255 -13.76 23.131 C-13.123 21.579 -13.123 21.579 -12.473 19.996 C-12.094 19.06 -11.715 18.123 -11.324 17.158 C-10 15 -10 15 -7.997 14.123 C-5.033 13.941 -3.371 15.16 -0.812 16.625 C10.107 22.283 20.852 25.426 33.188 25.5 C33.977 25.506 34.767 25.513 35.58 25.519 C40.429 25.412 43.749 24.549 48 22 C48 20.35 48 18.7 48 17 C41.145 13.141 34.245 11.33 26.625 9.5 C18.47 7.529 10.692 5.386 3 2 C6.76 -0.453 10.511 -0.276 14.842 -0.243 Z " fill="#88154B" transform="translate(469,141)"/>
<path d="M0 0 C0.878 -0.007 1.756 -0.013 2.66 -0.02 C4.519 -0.03 6.377 -0.035 8.236 -0.035 C11.083 -0.039 13.929 -0.075 16.775 -0.113 C18.579 -0.119 20.383 -0.123 22.188 -0.125 C23.467 -0.147 23.467 -0.147 24.773 -0.169 C30.675 -0.123 30.675 -0.123 33.139 2.208 C33.476 2.911 33.813 3.613 34.16 4.336 C36.48 8.754 38.687 11.013 43.16 13.336 C48.374 13.988 51.852 13.361 56.16 10.336 C58.379 7.459 60.267 4.432 62.16 1.336 C63.16 0.336 63.16 0.336 67.129 0.222 C68.901 0.223 70.673 0.228 72.445 0.238 C73.376 0.24 74.307 0.241 75.266 0.243 C78.252 0.248 81.237 0.261 84.223 0.273 C86.242 0.278 88.26 0.283 90.279 0.287 C95.24 0.298 100.2 0.315 105.16 0.336 C105.012 1.775 104.861 3.214 104.708 4.653 C104.582 5.855 104.582 5.855 104.453 7.081 C102.791 19.87 94.76 31.192 85.16 39.336 C70.629 50.494 52.855 52.143 35.16 50.336 C20.853 48.01 8.357 40.51 -0.84 29.336 C-6.292 21.487 -11.649 12.231 -10.84 2.336 C-7.766 -0.738 -4.126 0.011 0 0 Z " fill="#89154B" transform="translate(659.83984375,152.6640625)"/>
<path d="M0 0 C13.243 10.276 20.174 22.041 22.934 38.602 C22.956 39.393 22.977 40.185 23 41 C21 43 21 43 19.052 43.246 C18.25 43.244 17.448 43.242 16.621 43.241 C15.242 43.245 15.242 43.245 13.834 43.249 C12.822 43.242 11.81 43.234 10.767 43.227 C9.172 43.227 9.172 43.227 7.545 43.228 C4.017 43.227 0.489 43.211 -3.039 43.195 C-5.48 43.192 -7.921 43.189 -10.362 43.187 C-16.797 43.179 -23.231 43.159 -29.666 43.137 C-36.228 43.117 -42.79 43.108 -49.352 43.098 C-62.234 43.076 -75.117 43.042 -88 43 C-88 42.34 -88 41.68 -88 41 C-88.66 40.67 -89.32 40.34 -90 40 C-87.08 24.121 -81.014 11.648 -67.957 1.676 C-48.428 -11.193 -20.11 -12.946 0 0 Z M-43 28 C-46.005 31.621 -46.005 31.621 -47 36 C-37.43 36 -27.86 36 -18 36 C-19.145 30.273 -20.127 29.058 -24 25 C-30.928 22.691 -37.449 22.978 -43 28 Z " fill="#C12840" transform="translate(943,99)"/>
<path d="M0 0 C0.848 0.004 1.697 0.009 2.571 0.013 C3.531 0.014 4.492 0.014 5.482 0.014 C6.522 0.024 7.561 0.035 8.633 0.045 C9.695 0.048 10.758 0.051 11.852 0.054 C15.256 0.065 18.659 0.09 22.062 0.116 C24.366 0.126 26.669 0.135 28.972 0.143 C34.627 0.165 40.282 0.198 45.937 0.241 C41.754 11.465 37.491 22.657 33.186 33.835 C32.174 36.463 31.163 39.091 30.152 41.719 C29.502 43.407 28.853 45.095 28.203 46.783 C27.904 47.561 27.605 48.338 27.297 49.138 C26.876 50.231 26.876 50.231 26.446 51.347 C26.202 51.98 25.958 52.614 25.707 53.266 C24.798 55.597 23.866 57.918 22.937 60.241 C7.097 60.241 -8.743 60.241 -25.063 60.241 C-26.312 56.492 -25.638 55.494 -24.189 51.883 C-23.754 50.788 -23.32 49.694 -22.873 48.566 C-22.393 47.385 -21.913 46.204 -21.418 44.987 C-20.933 43.775 -20.448 42.563 -19.949 41.314 C-18.921 38.749 -17.887 36.186 -16.849 33.626 C-15.517 30.342 -14.198 27.053 -12.884 23.763 C-11.63 20.627 -10.368 17.494 -9.106 14.362 C-8.632 13.178 -8.158 11.995 -7.669 10.776 C-7.226 9.684 -6.782 8.593 -6.325 7.469 C-5.936 6.505 -5.546 5.542 -5.145 4.549 C-3.863 1.815 -3.114 0.363 0 0 Z " fill="#89154B" transform="translate(376.0627746582031,140.75949096679688)"/>
<path d="M0 0 C1.323 -0.017 1.323 -0.017 2.672 -0.035 C3.637 -0.037 4.602 -0.039 5.596 -0.041 C7.123 -0.056 7.123 -0.056 8.681 -0.071 C12.054 -0.101 15.428 -0.114 18.801 -0.125 C21.141 -0.137 23.482 -0.148 25.822 -0.16 C30.73 -0.181 35.639 -0.193 40.547 -0.2 C46.844 -0.211 53.14 -0.259 59.436 -0.316 C64.27 -0.353 69.104 -0.363 73.938 -0.366 C76.26 -0.372 78.582 -0.388 80.903 -0.415 C84.148 -0.449 87.39 -0.445 90.635 -0.432 C91.598 -0.45 92.56 -0.469 93.552 -0.488 C96.072 -0.456 98.248 -0.378 100.68 0.281 C103.245 3.2 103.245 3.2 104.68 6.281 C105.012 6.944 105.343 7.608 105.685 8.291 C106.03 9.158 106.03 9.158 106.383 10.043 C106.641 10.686 106.899 11.33 107.164 11.994 C107.417 12.645 107.67 13.297 107.93 13.968 C108.332 14.963 108.332 14.963 108.742 15.978 C109.894 18.896 110.68 21.116 110.68 24.281 C69.1 24.281 27.52 24.281 -15.32 24.281 C-11.863 12.757 -11.863 12.757 -9.82 7.781 C-9.418 6.781 -9.016 5.78 -8.601 4.75 C-6.53 0.76 -4.231 0.033 0 0 Z " fill="#9F1948" transform="translate(56.32005310058594,140.7191162109375)"/>
<path d="M0 0 C0 13.2 0 26.4 0 40 C-3.31 41.655 -6.991 41.101 -10.625 41.062 C-11.427 41.058 -12.229 41.053 -13.055 41.049 C-15.036 41.037 -17.018 41.019 -19 41 C-19 40.34 -19 39.68 -19 39 C-20.4 39.244 -20.4 39.244 -21.828 39.494 C-26.795 40.199 -31.739 40.124 -36.746 40.098 C-37.757 40.096 -38.768 40.095 -39.81 40.093 C-43.019 40.088 -46.228 40.075 -49.438 40.062 C-51.622 40.057 -53.806 40.053 -55.99 40.049 C-61.327 40.038 -66.663 40.021 -72 40 C-73.582 36.835 -73.242 33.41 -73.316 29.93 C-73.335 29.224 -73.354 28.518 -73.373 27.791 C-73.441 25.153 -73.501 22.514 -73.562 19.875 C-73.707 13.976 -73.851 8.078 -74 2 C-60.47 2 -46.94 2 -33 2 C-32.505 5.96 -32.505 5.96 -32 10 C-31.562 9.613 -31.123 9.227 -30.672 8.828 C-20.937 0.834 -12.608 0 0 0 Z " fill="#E53D37" transform="translate(850,91)"/>
<path d="M0 0 C0.66 1.32 1.32 2.64 2 4 C15.53 4 29.06 4 43 4 C43.495 8.95 43.495 8.95 44 14 C44.99 15.32 45.98 16.64 47 18 C51.368 18.477 54.212 18.164 58 16 C58.99 16 59.98 16 61 16 C62.291 19.893 63.573 23.789 64.845 27.688 C65.279 29.013 65.716 30.337 66.155 31.66 C66.787 33.567 67.409 35.477 68.031 37.387 C68.408 38.534 68.785 39.68 69.174 40.862 C69.934 43.749 70.175 46.037 70 49 C68.418 49.649 66.834 50.294 65.25 50.938 C64.368 51.297 63.487 51.657 62.578 52.027 C50.992 56.399 33.756 56.034 22.336 51.262 C12.449 45.921 4.693 37.918 1.396 27 C-0.008 21.083 -0.241 15.501 -0.125 9.438 C-0.116 8.524 -0.107 7.611 -0.098 6.67 C-0.074 4.446 -0.042 2.223 0 0 Z " fill="#88154B" transform="translate(577,149)"/>
<path d="M0 0 C36.63 0 73.26 0 111 0 C111 6.93 111 13.86 111 21 C74.7 21 38.4 21 1 21 C0.67 21.99 0.34 22.98 0 24 C0 16.08 0 8.16 0 0 Z " fill="#974B45" transform="translate(330,63)"/>
<path d="M0 0 C9.746 -0.091 19.492 -0.164 29.238 -0.207 C33.765 -0.228 38.292 -0.256 42.82 -0.302 C47.203 -0.346 51.586 -0.369 55.969 -0.38 C57.627 -0.387 59.285 -0.401 60.943 -0.423 C83.01 -0.702 102.593 4.397 119 20 C119 20.33 119 20.66 119 21 C79.73 21.33 40.46 21.66 0 22 C0 14.74 0 7.48 0 0 Z " fill="#964A45" transform="translate(187,63)"/>
<path d="M0 0 C1.435 0.601 1.435 0.601 2.898 1.215 C13.731 6.449 20.679 14.358 26 25 C-8.32 24.67 -42.64 24.34 -78 24 C-73.818 13.544 -64.96 5.967 -55 1 C-38.006 -5.81 -17.107 -7.199 0 0 Z " fill="#E63C37" transform="translate(733,95)"/>
<path d="M0 0 C1.107 0.162 2.214 0.325 3.354 0.492 C8.354 1.113 13.299 1.14 18.332 1.129 C19.334 1.131 20.337 1.133 21.37 1.135 C24.661 1.139 27.951 1.136 31.242 1.133 C33.535 1.133 35.828 1.134 38.121 1.136 C42.914 1.137 47.707 1.135 52.5 1.13 C58.654 1.125 64.808 1.128 70.962 1.134 C75.69 1.138 80.419 1.136 85.147 1.134 C87.417 1.133 89.688 1.134 91.958 1.136 C95.12 1.139 98.282 1.135 101.445 1.129 C102.86 1.132 102.86 1.132 104.304 1.136 C105.161 1.133 106.019 1.13 106.903 1.127 C107.65 1.127 108.398 1.126 109.168 1.126 C111.098 1.111 111.098 1.111 113 0 C113 5.94 113 11.88 113 18 C90.56 18.33 68.12 18.66 45 19 C46.65 21.31 48.3 23.62 50 26 C34.82 25.67 19.64 25.34 4 25 C4 24.34 4 23.68 4 23 C3.34 23 2.68 23 2 23 C0.046 15.271 -0.224 7.95 0 0 Z " fill="#B02044" transform="translate(853,140)"/>
<path d="M0 0 C1.186 -0.015 1.186 -0.015 2.396 -0.03 C5.022 -0.06 7.648 -0.081 10.274 -0.1 C11.173 -0.106 12.072 -0.113 12.998 -0.12 C17.764 -0.152 22.531 -0.177 27.297 -0.196 C31.228 -0.214 35.157 -0.249 39.087 -0.299 C43.843 -0.359 48.597 -0.39 53.352 -0.399 C55.157 -0.408 56.961 -0.427 58.765 -0.456 C72.614 -0.671 83.116 1.424 93.67 11.21 C95.58 13.491 96.786 15.762 98.067 18.443 C98.499 19.337 98.931 20.232 99.376 21.153 C99.695 21.831 100.015 22.51 100.344 23.209 C89.009 23.278 77.673 23.332 66.337 23.364 C61.073 23.38 55.809 23.401 50.545 23.435 C45.462 23.468 40.379 23.486 35.295 23.493 C33.359 23.499 31.423 23.51 29.487 23.526 C26.768 23.548 24.05 23.551 21.331 23.549 C20.536 23.56 19.742 23.571 18.924 23.582 C10.571 23.536 4.306 20.877 -1.828 15.177 C-5.644 11.067 -8.493 6.73 -9.656 1.209 C-6.589 -0.325 -3.367 0.026 0 0 Z " fill="#C12840" transform="translate(459.65576171875,118.791259765625)"/>
<path d="M0 0 C6.858 6.072 9.307 12.144 9.961 21.16 C10.076 29.506 7.279 36.456 1.551 42.539 C-4.356 47.842 -10.312 48.475 -17.969 48.305 C-24.664 47.632 -29.28 45.123 -33.875 40.25 C-40.091 32.389 -40.906 24.913 -40 15 C-38.812 9.338 -36.127 5.035 -32 1 C-21.918 -5.286 -10.42 -6.266 0 0 Z " fill="#89154B" transform="translate(1012,155)"/>
<path d="M0 0 C6.782 5.263 14.211 11.633 17 20 C-15.67 20 -48.34 20 -82 20 C-80.361 11.806 -74.401 6.612 -67.938 1.648 C-48.368 -11.158 -20.129 -12.959 0 0 Z " fill="#E63C37" transform="translate(943,99)"/>
<path d="M0 0 C17.487 -0.589 37.615 2.518 52.531 12.156 C51.913 17.226 50.664 20.179 48.531 25.156 C16.191 25.156 -16.149 25.156 -49.469 25.156 C-47.683 18.011 -42.923 13.83 -36.783 9.943 C-25.45 3.237 -13.029 0.825 0 0 Z " fill="#964A45" transform="translate(504.46875,58.84375)"/>
<path d="M0 0 C3 1 3 1 3 1 Z M14.842 -0.243 C15.628 -0.245 16.414 -0.247 17.223 -0.249 C19.817 -0.252 22.41 -0.242 25.004 -0.23 C26.807 -0.229 28.61 -0.229 30.413 -0.229 C34.19 -0.228 37.967 -0.219 41.744 -0.206 C46.588 -0.189 51.433 -0.185 56.278 -0.186 C60 -0.185 63.722 -0.18 67.444 -0.173 C69.231 -0.17 71.018 -0.168 72.804 -0.167 C75.299 -0.165 77.793 -0.156 80.287 -0.145 C81.398 -0.146 81.398 -0.146 82.531 -0.147 C85.627 -0.127 88.039 0.013 91 1 C94.423 8.417 94.127 16.109 93 24 C78.48 24 63.96 24 49 24 C48.505 20.535 48.505 20.535 48 17 C41.633 12.621 34.056 11.284 26.625 9.5 C18.47 7.529 10.692 5.386 3 2 C6.76 -0.453 10.511 -0.276 14.842 -0.243 Z " fill="#AF2043" transform="translate(469,141)"/>
<path d="M0 0 C1.491 -0.019 1.491 -0.019 3.012 -0.039 C4.662 -0.053 4.662 -0.053 6.345 -0.066 C8.071 -0.086 8.071 -0.086 9.833 -0.106 C20.462 -0.218 31.091 -0.278 41.721 -0.323 C49.579 -0.356 57.435 -0.415 65.293 -0.51 C70.816 -0.574 76.34 -0.608 81.864 -0.619 C85.163 -0.627 88.461 -0.652 91.76 -0.702 C95.446 -0.756 99.128 -0.759 102.813 -0.75 C103.903 -0.777 104.992 -0.804 106.115 -0.832 C113.322 -0.743 113.322 -0.743 116.449 1.912 C118.95 5.091 120.402 7.065 120.402 11.174 C79.152 11.174 37.902 11.174 -4.598 11.174 C-6.224 7.921 -5.712 4.782 -5.598 1.174 C-3.985 -0.438 -2.232 0.024 0 0 Z " fill="#B24840" transform="translate(192.5975799560547,83.82591247558594)"/>
<path d="M0 0 C48.51 0.495 48.51 0.495 98 1 C97.15 6.103 96.045 10.089 94.188 14.812 C93.939 15.492 93.691 16.172 93.436 16.873 C91.552 21.681 91.552 21.681 89.117 23.09 C86.281 22.969 84.462 22.044 81.938 20.75 C71.75 15.899 62.237 14.476 51 14 C51 13.67 51 13.34 51 13 C33.18 12.67 15.36 12.34 -3 12 C-4 8 -4 8 0 0 Z " fill="#CC453B" transform="translate(454,83)"/>
<path d="M0 0 C1.323 -0.017 1.323 -0.017 2.672 -0.035 C3.637 -0.037 4.602 -0.039 5.596 -0.041 C7.123 -0.056 7.123 -0.056 8.681 -0.071 C12.054 -0.101 15.428 -0.114 18.801 -0.125 C21.141 -0.137 23.482 -0.148 25.822 -0.16 C30.73 -0.181 35.639 -0.193 40.547 -0.2 C46.844 -0.211 53.14 -0.259 59.436 -0.316 C64.27 -0.353 69.104 -0.363 73.938 -0.366 C76.26 -0.372 78.582 -0.388 80.903 -0.415 C84.148 -0.449 87.39 -0.445 90.635 -0.432 C91.598 -0.45 92.56 -0.469 93.552 -0.488 C96.064 -0.456 98.25 -0.356 100.68 0.281 C104.59 4.354 105.073 7.655 106.68 13.281 C68.4 12.951 30.12 12.621 -9.32 12.281 C-10.32 9.281 -10.32 9.281 -9.07 5.718 C-6.763 1.186 -4.901 0.038 0 0 Z " fill="#B02043" transform="translate(56.32005310058594,140.7191162109375)"/>
<path d="M0 0 C36.3 0 72.6 0 110 0 C110 9 110 9 108 12 C106.052 12.369 106.052 12.369 103.621 12.361 C102.702 12.365 101.782 12.369 100.834 12.373 C99.822 12.362 98.81 12.352 97.767 12.341 C96.172 12.341 96.172 12.341 94.545 12.342 C91.017 12.34 87.489 12.316 83.961 12.293 C81.52 12.287 79.079 12.283 76.638 12.28 C70.203 12.269 63.769 12.239 57.334 12.206 C50.772 12.175 44.21 12.162 37.648 12.146 C24.766 12.114 11.883 12.064 -1 12 C-1.027 10.563 -1.046 9.125 -1.062 7.688 C-1.074 6.887 -1.086 6.086 -1.098 5.262 C-1 3 -1 3 0 0 Z " fill="#B34941" transform="translate(331,84)"/>
<path d="M0 0 C0.33 0.99 0.66 1.98 1 3 C1.969 2.837 2.939 2.674 3.938 2.506 C8.3 1.886 12.597 1.874 16.996 1.902 C17.83 1.904 18.663 1.905 19.522 1.907 C22.161 1.912 24.799 1.925 27.438 1.938 C29.236 1.943 31.035 1.947 32.834 1.951 C37.223 1.962 41.611 1.979 46 2 C45.572 4.356 45.133 6.71 44.688 9.062 C44.57 9.719 44.452 10.376 44.33 11.053 C43.287 16.484 42.013 21.987 38 26 C35.368 26.241 35.368 26.241 31.99 26.227 C30.098 26.227 30.098 26.227 28.168 26.227 C26.787 26.216 25.405 26.206 24.023 26.195 C22.614 26.192 21.204 26.189 19.795 26.187 C16.082 26.179 12.37 26.159 8.658 26.137 C4.871 26.117 1.084 26.108 -2.703 26.098 C-10.135 26.076 -17.568 26.042 -25 26 C-24 24 -24 24 -21.777 23.176 C-20.84 22.891 -19.903 22.606 -18.938 22.312 C-12.334 19.98 -7.24 16.855 -3.656 10.688 C-2.046 7.192 -0.871 3.748 0 0 Z " fill="#9F1947" transform="translate(277,139)"/>
<path d="M0 0 C35.31 0 70.62 0 107 0 C98.485 8.515 83.375 12.084 71.566 12.136 C70.529 12.132 70.529 12.132 69.472 12.129 C68.731 12.131 67.991 12.133 67.228 12.135 C64.793 12.139 62.357 12.136 59.922 12.133 C58.227 12.133 56.533 12.134 54.839 12.136 C51.295 12.137 47.751 12.135 44.207 12.13 C39.655 12.125 35.103 12.128 30.551 12.134 C27.056 12.138 23.561 12.136 20.066 12.134 C18.387 12.133 16.707 12.134 15.028 12.136 C12.689 12.139 10.35 12.135 8.011 12.129 C7.312 12.131 6.612 12.133 5.892 12.136 C1.114 12.114 1.114 12.114 0 11 C0 7.37 0 3.74 0 0 Z " fill="#7E3149" transform="translate(187,189)"/>
<path d="M0 0 C0.848 0.004 1.697 0.009 2.571 0.013 C3.531 0.014 4.492 0.014 5.482 0.014 C6.522 0.024 7.561 0.035 8.633 0.045 C9.695 0.048 10.758 0.051 11.852 0.054 C15.256 0.065 18.659 0.09 22.062 0.116 C24.366 0.126 26.669 0.135 28.972 0.143 C34.627 0.165 40.282 0.198 45.937 0.241 C45.527 1.326 45.117 2.411 44.695 3.53 C44.151 4.975 43.606 6.42 43.062 7.866 C42.793 8.578 42.523 9.291 42.246 10.026 C40.724 14.072 39.274 18.128 37.937 22.241 C37.277 22.241 36.617 22.241 35.937 22.241 C35.937 22.901 35.937 23.561 35.937 24.241 C20.097 24.241 4.257 24.241 -12.063 24.241 C-10.274 18.875 -8.502 13.581 -6.5 8.303 C-6.086 7.201 -5.673 6.099 -5.246 4.963 C-3.254 0.379 -3.254 0.379 0 0 Z " fill="#9F1847" transform="translate(376.0627746582031,140.75949096679688)"/>
<path d="M0 0 C32.67 0 65.34 0 99 0 C93.887 8.521 84.47 11.504 75.041 13.865 C50.674 18.915 21.288 15.367 0 2 C0 1.34 0 0.68 0 0 Z " fill="#7D3149" transform="translate(448,189)"/>
<path d="M0 0 C0.779 0.002 1.559 0.004 2.362 0.007 C3.683 0.007 3.683 0.007 5.031 0.007 C5.988 0.012 6.946 0.017 7.932 0.023 C9.395 0.025 9.395 0.025 10.887 0.027 C14.015 0.033 17.144 0.045 20.272 0.058 C22.387 0.063 24.502 0.067 26.618 0.071 C31.815 0.082 37.012 0.099 42.209 0.12 C45.866 7.027 48.347 13.679 51.209 21.12 C31.079 21.12 10.949 21.12 -9.791 21.12 C-8.883 16.583 -7.526 12.619 -5.791 8.37 C-5.381 7.344 -5.381 7.344 -4.963 6.296 C-2.487 0.167 -2.487 0.167 0 0 Z " fill="#964A44" transform="translate(83.79066467285156,62.87974548339844)"/>
<path d="M0 0 C36.63 0 73.26 0 111 0 C111 3.3 111 6.6 111 10 C74.7 10 38.4 10 1 10 C0.67 6.7 0.34 3.4 0 0 Z " fill="#514E4E" transform="translate(330,63)"/>
<path d="M0 0 C15.84 0 31.68 0 48 0 C47.078 4.61 45.866 8.775 44.312 13.188 C44.081 13.911 43.85 14.635 43.611 15.381 C41.736 20.645 41.736 20.645 38.494 22.208 C34.008 23.225 29.811 23.249 25.227 23.195 C24.303 23.192 23.379 23.19 22.427 23.187 C19.493 23.176 16.559 23.15 13.625 23.125 C11.629 23.115 9.633 23.106 7.637 23.098 C2.758 23.076 -2.121 23.041 -7 23 C-8 19 -8 19 0 0 Z " fill="#D2313C" transform="translate(382,119)"/>
<path d="M0 0 C49.5 0.495 49.5 0.495 100 1 C101.32 3.97 102.64 6.94 104 10 C101 13 101 13 97.586 13.325 C96.182 13.317 94.778 13.294 93.375 13.258 C92.632 13.251 91.888 13.245 91.123 13.238 C88.748 13.214 86.374 13.171 84 13.125 C81.626 13.09 79.252 13.059 76.877 13.034 C75.4 13.017 73.924 12.994 72.447 12.964 C69.332 12.918 66.982 13.006 64 14 C63.423 13.051 62.845 12.102 62.25 11.125 C60.043 8.06 59.355 7.284 56 6 C51.055 5.298 47.149 5.359 42.75 7.812 C41.842 8.534 40.935 9.256 40 10 C35.003 13.06 31.213 13.409 25.539 13.293 C24.748 13.289 23.958 13.284 23.143 13.28 C20.637 13.263 18.131 13.226 15.625 13.188 C13.918 13.172 12.211 13.159 10.504 13.146 C6.336 13.114 2.168 13.062 -2 13 C-3.25 11 -3.25 11 -4 8 C-2.68 5.36 -1.36 2.72 0 0 Z " fill="#D1303C" transform="translate(860,118)"/>
<path d="M0 0 C1.186 -0.015 1.186 -0.015 2.396 -0.03 C5.022 -0.06 7.648 -0.081 10.274 -0.1 C11.173 -0.106 12.072 -0.113 12.998 -0.12 C17.764 -0.152 22.531 -0.177 27.297 -0.196 C31.228 -0.214 35.157 -0.249 39.087 -0.299 C43.843 -0.359 48.597 -0.39 53.352 -0.399 C55.157 -0.408 56.961 -0.427 58.765 -0.456 C71.426 -0.652 81.269 0.667 91.344 9.209 C91.344 9.869 91.344 10.529 91.344 11.209 C86.045 12.082 80.917 12.383 75.551 12.433 C74.699 12.445 73.848 12.456 72.971 12.468 C64.146 12.578 55.319 12.626 46.493 12.669 C42.307 12.691 38.121 12.733 33.935 12.792 C28.869 12.863 23.804 12.9 18.738 12.912 C16.811 12.922 14.883 12.945 12.956 12.979 C10.263 13.026 7.573 13.028 4.879 13.019 C4.085 13.043 3.291 13.066 2.473 13.091 C-0.587 13.045 -2.948 12.859 -5.258 10.737 C-7.55 7.675 -8.865 4.959 -9.656 1.209 C-6.589 -0.325 -3.367 0.026 0 0 Z " fill="#D1303D" transform="translate(459.65576171875,118.791259765625)"/>
<path d="M0 0 C5.927 -0.046 11.853 -0.086 17.78 -0.11 C19.796 -0.12 21.813 -0.134 23.829 -0.151 C26.726 -0.175 29.623 -0.186 32.52 -0.195 C33.423 -0.206 34.326 -0.216 35.257 -0.227 C36.097 -0.227 36.938 -0.227 37.804 -0.227 C38.543 -0.231 39.283 -0.236 40.045 -0.241 C42 0 42 0 45 2 C45.251 4.69 45.326 7.13 45.25 9.812 C45.245 10.525 45.24 11.237 45.234 11.971 C45.177 15.832 44.763 19.184 44 23 C50.6 23 57.2 23 64 23 C64 23.33 64 23.66 64 24 C62.842 24.015 62.842 24.015 61.66 24.031 C54.39 24.129 47.121 24.232 39.852 24.339 C36.115 24.395 32.378 24.448 28.64 24.497 C25.035 24.545 21.43 24.597 17.825 24.653 C16.448 24.673 15.071 24.692 13.694 24.709 C11.768 24.733 9.843 24.764 7.918 24.795 C6.821 24.81 5.724 24.826 4.594 24.842 C2.015 24.829 2.015 24.829 0 26 C0 17.42 0 8.84 0 0 Z " fill="#9F1847" transform="translate(187,141)"/>
<path d="M0 0 C2.31 0.33 4.62 0.66 7 1 C8.702 1.078 10.406 1.118 12.109 1.114 C13.05 1.113 13.99 1.113 14.959 1.113 C15.951 1.108 16.943 1.103 17.965 1.098 C19.515 1.096 19.515 1.096 21.096 1.093 C24.377 1.088 27.657 1.075 30.938 1.062 C33.17 1.057 35.402 1.053 37.635 1.049 C43.09 1.038 48.545 1.021 54 1 C53 4 53 4 50.688 5.25 C46.996 7.653 45.838 10.007 44 14 C43.34 17.3 42.68 20.6 42 24 C28.14 24 14.28 24 0 24 C0 16.08 0 8.16 0 0 Z " fill="#C12840" transform="translate(777,129)"/>
<path d="M0 0 C1.321 0 1.321 0 2.669 0 C3.621 0.005 4.573 0.011 5.554 0.016 C7.015 0.018 7.015 0.018 8.505 0.02 C11.623 0.026 14.741 0.038 17.859 0.051 C19.97 0.056 22.08 0.061 24.191 0.065 C29.372 0.076 34.553 0.092 39.734 0.114 C40.675 2.938 40.851 4.643 40.832 7.563 C40.828 8.41 40.825 9.258 40.822 10.131 C40.809 11.453 40.809 11.453 40.796 12.801 C40.792 13.694 40.787 14.586 40.783 15.506 C40.771 17.709 40.754 19.911 40.734 22.114 C35.352 23.018 30.189 23.247 24.738 23.211 C23.904 23.21 23.071 23.208 22.212 23.207 C19.573 23.201 16.935 23.189 14.296 23.176 C12.498 23.171 10.699 23.166 8.9 23.162 C4.511 23.151 0.123 23.134 -4.266 23.114 C-5.191 19.71 -5.338 16.775 -5.266 13.239 C-5.225 9.069 -5.357 5.205 -6.266 1.114 C-3.936 -0.052 -2.594 -0.007 0 0 Z " fill="#D1303C" transform="translate(282.26611328125,118.886474609375)"/>
<path d="M0 0 C0.66 0.66 1.32 1.32 2 2 C3.898 2.291 3.898 2.291 6.083 2.227 C6.923 2.227 7.764 2.227 8.63 2.227 C9.539 2.216 10.447 2.206 11.383 2.195 C12.777 2.191 12.777 2.191 14.199 2.187 C17.175 2.176 20.15 2.15 23.125 2.125 C25.139 2.115 27.154 2.106 29.168 2.098 C34.112 2.076 39.056 2.041 44 2 C45.234 6.771 45.113 11.425 45.062 16.312 C45.058 17.148 45.053 17.984 45.049 18.846 C45.037 20.897 45.019 22.949 45 25 C38.913 25.025 32.826 25.043 26.738 25.055 C24.666 25.06 22.594 25.067 20.522 25.075 C17.549 25.088 14.575 25.093 11.602 25.098 C10.671 25.103 9.741 25.108 8.783 25.113 C7.922 25.113 7.061 25.113 6.174 25.114 C5.035 25.117 5.035 25.117 3.873 25.12 C2 25 2 25 0 24 C0 16.08 0 8.16 0 0 Z " fill="#D2313C" transform="translate(187,117)"/>
<path d="M0 0 C0.66 0.33 1.32 0.66 2 1 C6.076 2.195 10.058 2.144 14.273 2.133 C15.075 2.134 15.876 2.135 16.702 2.136 C18.395 2.136 20.087 2.135 21.78 2.13 C24.359 2.125 26.937 2.13 29.516 2.137 C31.164 2.136 32.813 2.135 34.461 2.133 C35.61 2.136 35.61 2.136 36.782 2.139 C40.964 2.121 44.88 1.821 49 1 C48.67 1.66 48.34 2.32 48 3 C47.34 3 46.68 3 46 3 C43.273 9.039 41.942 15.06 41.977 21.667 C41.98 22.478 41.984 23.289 41.987 24.125 C41.991 24.744 41.996 25.363 42 26 C40.774 25.995 39.547 25.99 38.284 25.984 C33.739 25.966 29.193 25.955 24.648 25.945 C22.68 25.94 20.712 25.933 18.743 25.925 C15.916 25.912 13.089 25.907 10.262 25.902 C9.38 25.897 8.499 25.892 7.591 25.887 C6.77 25.887 5.95 25.887 5.104 25.886 C4.383 25.884 3.661 25.882 2.917 25.88 C0.778 25.932 0.778 25.932 -2 27 C-2.369 7.995 -2.369 7.995 0 0 Z " fill="#C02840" transform="translate(650,128)"/>
<path d="M0 0 C14.19 0 28.38 0 43 0 C43 0.66 43 1.32 43 2 C49.27 2 55.54 2 62 2 C62 2.33 62 2.66 62 3 C55.73 3 49.46 3 43 3 C43 9.6 43 16.2 43 23 C22.21 23.495 22.21 23.495 1 24 C0.086 19.432 -0.116 15.301 -0.062 10.688 C-0.058 9.947 -0.053 9.206 -0.049 8.443 C-0.037 6.629 -0.019 4.814 0 3 C-3.96 3 -7.92 3 -12 3 C-12 2.67 -12 2.34 -12 2 C-8.04 2 -4.08 2 0 2 C0 1.34 0 0.68 0 0 Z " fill="#C02841" transform="translate(577,130)"/>
<path d="M0 0 C15.18 0 30.36 0 46 0 C48.25 7.875 48.25 7.875 48.195 11.184 C48.189 11.883 48.182 12.582 48.176 13.303 C48.159 14.007 48.142 14.712 48.125 15.438 C48.116 16.169 48.107 16.901 48.098 17.654 C48.074 19.436 48.039 21.218 48 23 C42.037 23.025 36.074 23.043 30.111 23.055 C28.08 23.06 26.05 23.067 24.02 23.075 C21.108 23.088 18.197 23.093 15.285 23.098 C13.915 23.105 13.915 23.105 12.517 23.113 C10.344 23.113 8.172 23.062 6 23 C3.838 20.838 4.224 15.761 3.926 12.723 C3.427 8.421 2.393 5.582 0 2 C0 1.34 0 0.68 0 0 Z M4 22 C4.66 22.66 5.32 23.32 6 24 C5.01 24.495 5.01 24.495 4 25 C4 24.01 4 23.02 4 22 Z " fill="#C12840" transform="translate(717,130)"/>
<path d="M0 0 C5.339 -0.049 10.677 -0.086 16.016 -0.11 C17.831 -0.12 19.647 -0.134 21.463 -0.151 C24.074 -0.175 26.685 -0.186 29.297 -0.195 C30.107 -0.206 30.918 -0.216 31.753 -0.227 C39.126 -0.228 39.126 -0.228 42 2 C43.113 3.724 43.113 3.724 43.957 5.773 C44.264 6.516 44.572 7.258 44.889 8.023 C45.194 8.799 45.498 9.575 45.812 10.375 C46.137 11.143 46.461 11.912 46.795 12.703 C48.418 16.721 49.194 18.765 48 23 C42.482 23.025 36.965 23.043 31.447 23.055 C29.569 23.06 27.691 23.067 25.813 23.075 C23.118 23.088 20.422 23.093 17.727 23.098 C16.884 23.103 16.041 23.108 15.173 23.113 C9.228 23.114 9.228 23.114 7 22 C7 21.01 7 20.02 7 19 C6.34 19 5.68 19 5 19 C3.968 16.4 2.949 13.796 1.938 11.188 C1.643 10.45 1.348 9.712 1.045 8.951 C-1.113 3.34 -1.113 3.34 0 0 Z " fill="#D1303D" transform="translate(108,119)"/>
<path d="M0 0 C13.86 0 27.72 0 42 0 C39.668 7.775 36.914 15.424 34 23 C20.8 23 7.6 23 -6 23 C-6.66 21.68 -7.32 20.36 -8 19 C-5.36 12.73 -2.72 6.46 0 0 Z M-9 22 C-8.01 22.495 -8.01 22.495 -7 23 C-7.99 23.495 -7.99 23.495 -9 24 C-9 23.34 -9 22.68 -9 22 Z " fill="#D1303D" transform="translate(59,119)"/>
<path d="M0 0 C0.33 0.66 0.66 1.32 1 2 C26.08 2 51.16 2 77 2 C77 6.62 77 11.24 77 16 C73.771 15.859 70.542 15.712 67.312 15.562 C66.4 15.523 65.488 15.484 64.549 15.443 C63.663 15.401 62.776 15.36 61.863 15.316 C60.646 15.261 60.646 15.261 59.404 15.205 C57 15 57 15 54.73 14.489 C50.974 13.816 47.256 13.857 43.453 13.867 C42.641 13.866 41.83 13.865 40.993 13.864 C39.285 13.864 37.577 13.865 35.87 13.87 C33.245 13.875 30.621 13.87 27.996 13.863 C26.336 13.864 24.676 13.865 23.016 13.867 C22.227 13.865 21.439 13.863 20.626 13.861 C17.016 13.537 17.016 13.537 14 15 C11.839 15.261 9.67 15.46 7.5 15.625 C5.721 15.768 5.721 15.768 3.906 15.914 C2.947 15.942 1.988 15.971 1 16 C0 15 0 15 -0.098 11.621 C-0.091 10.227 -0.079 8.832 -0.062 7.438 C-0.058 6.727 -0.053 6.016 -0.049 5.283 C-0.037 3.522 -0.019 1.761 0 0 Z " fill="#D1303D" transform="translate(563,117)"/>
<path d="M0 0 C9.746 -0.093 19.492 -0.164 29.238 -0.207 C33.765 -0.228 38.292 -0.256 42.82 -0.302 C47.203 -0.346 51.586 -0.369 55.969 -0.38 C57.627 -0.387 59.285 -0.401 60.943 -0.423 C76.619 -0.621 90.942 1.591 105 9 C105 9.33 105 9.66 105 10 C91.457 10.023 77.915 10.041 64.372 10.052 C58.084 10.057 51.797 10.064 45.509 10.075 C39.447 10.086 33.384 10.092 27.322 10.095 C25.003 10.097 22.685 10.1 20.366 10.106 C17.131 10.113 13.896 10.114 10.66 10.114 C9.692 10.117 8.723 10.121 7.724 10.124 C6.848 10.123 5.972 10.122 5.068 10.12 C4.302 10.121 3.536 10.122 2.747 10.123 C1 10 1 10 0 9 C-0.072 7.481 -0.084 5.958 -0.062 4.438 C-0.053 3.611 -0.044 2.785 -0.035 1.934 C-0.024 1.296 -0.012 0.657 0 0 Z " fill="#664E4D" transform="translate(187,63)"/>
<path d="M0 0 C17.487 -0.589 37.615 2.518 52.531 12.156 C52.201 13.146 51.871 14.136 51.531 15.156 C20.841 15.156 -9.849 15.156 -41.469 15.156 C-41.469 14.496 -41.469 13.836 -41.469 13.156 C-28.344 4.707 -15.591 0.987 0 0 Z " fill="#504D4D" transform="translate(504.46875,58.84375)"/>
<path d="M0 0 C36.96 0 73.92 0 112 0 C112 1.65 112 3.3 112 5 C89.56 5.33 67.12 5.66 44 6 C46.475 9.465 46.475 9.465 49 13 C33.82 12.67 18.64 12.34 3 12 C3 11.34 3 10.68 3 10 C2.34 10 1.68 10 1 10 C0.67 6.7 0.34 3.4 0 0 Z " fill="#9F1847" transform="translate(854,153)"/>
<path d="M0 0 C0.33 0 0.66 0 1 0 C1 5.61 1 11.22 1 17 C-2.31 18.655 -5.991 18.101 -9.625 18.062 C-10.427 18.058 -11.229 18.053 -12.055 18.049 C-14.036 18.037 -16.018 18.019 -18 18 C-18 17.34 -18 16.68 -18 16 C-19.4 16.244 -19.4 16.244 -20.828 16.494 C-25.795 17.199 -30.739 17.124 -35.746 17.098 C-36.757 17.096 -37.768 17.095 -38.81 17.093 C-42.019 17.088 -45.228 17.075 -48.438 17.062 C-50.622 17.057 -52.806 17.053 -54.99 17.049 C-60.327 17.038 -65.663 17.021 -71 17 C-72 15 -72 15 -72 4 C-48.24 4.33 -24.48 4.66 0 5 C0 3.35 0 1.7 0 0 Z " fill="#D1303D" transform="translate(849,114)"/>
<path d="M0 0 C26.73 0 53.46 0 81 0 C69.391 11.609 56.893 14.491 40.938 14.562 C25.896 14.398 11.869 11.922 0 2 C0 1.34 0 0.68 0 0 Z " fill="#7C3148" transform="translate(874,189)"/>
<path d="M0 0 C25.74 0.33 51.48 0.66 78 1 C76.562 5.313 74.028 6.262 70.16 8.438 C54.26 16.299 35.293 18.245 18.188 12.938 C11.718 10.565 5.184 7.635 0 3 C0 2.01 0 1.02 0 0 Z " fill="#7C3148" transform="translate(668,188)"/>
<path d="M0 0 C20.46 0 40.92 0 62 0 C66 9 66 9 66 11 C42.9 11 19.8 11 -4 11 C-2.68 7.37 -1.36 3.74 0 0 Z " fill="#B24840" transform="translate(73,84)"/>
<path d="M0 0 C19.14 0 38.28 0 58 0 C59.883 3.767 60.221 5.03 60 9 C58.418 9.649 56.834 10.294 55.25 10.938 C54.368 11.297 53.487 11.657 52.578 12.027 C40.991 16.399 23.778 16.026 12.352 11.273 C6.767 8.249 2.878 5.756 0 0 Z " fill="#7E3249" transform="translate(587,189)"/>
<path d="M0 0 C14.19 0 28.38 0 43 0 C43 4.95 43 9.9 43 15 C29.14 15 15.28 15 1 15 C0.67 15.66 0.34 16.32 0 17 C0 11.39 0 5.78 0 0 Z " fill="#7E4B4A" transform="translate(577,69)"/>
<path d="M0 0 C16.133 0.084 32.266 0.179 48.399 0.288 C55.89 0.338 63.38 0.384 70.871 0.422 C77.398 0.455 83.925 0.495 90.452 0.543 C93.909 0.568 97.367 0.59 100.824 0.603 C104.68 0.619 108.535 0.649 112.39 0.681 C114.119 0.684 114.119 0.684 115.882 0.688 C116.928 0.699 117.974 0.71 119.052 0.722 C119.965 0.727 120.877 0.733 121.817 0.738 C124 1 124 1 126 3 C126 3.99 126 4.98 126 6 C84.75 6 43.5 6 1 6 C0.67 4.02 0.34 2.04 0 0 Z " fill="#CD453B" transform="translate(187,89)"/>
<path d="M0 0 C1.756 0.015 3.513 0.036 5.269 0.061 C6.703 0.075 6.703 0.075 8.166 0.09 C11.342 0.123 14.518 0.163 17.694 0.203 C19.89 0.228 22.086 0.252 24.282 0.275 C30.074 0.338 35.865 0.407 41.657 0.477 C47.562 0.548 53.467 0.613 59.372 0.678 C70.968 0.807 82.564 0.943 94.159 1.082 C93.829 3.062 93.499 5.042 93.159 7.082 C60.159 7.082 27.159 7.082 -6.841 7.082 C-4.512 0.097 -4.512 0.097 0 0 Z " fill="#B24841" transform="translate(457.84071350097656,82.91770935058594)"/>
<path d="M0 0 C0.831 0.022 1.661 0.044 2.517 0.067 C3.928 0.098 3.928 0.098 5.368 0.128 C6.385 0.161 7.403 0.193 8.452 0.226 C9.492 0.251 10.533 0.276 11.604 0.302 C14.937 0.384 18.268 0.481 21.6 0.578 C23.855 0.636 26.111 0.693 28.366 0.749 C33.903 0.89 39.439 1.042 44.975 1.203 C43.642 5.203 42.309 9.203 40.975 13.203 C25.135 13.203 9.295 13.203 -7.025 13.203 C-8.025 10.203 -8.025 10.203 -7.318 8.23 C-6.953 7.54 -6.588 6.851 -6.212 6.14 C-5.855 5.448 -5.498 4.756 -5.13 4.042 C-3.696 1.655 -2.871 0.287 0 0 Z " fill="#7E3149" transform="translate(358.0248107910156,187.79745483398438)"/>
<path d="M0 0 C0.33 0 0.66 0 1 0 C1 1.98 1 3.96 1 6 C37.3 6 73.6 6 111 6 C111 7.65 111 9.3 111 11 C96.675 11.023 82.35 11.041 68.025 11.052 C61.374 11.057 54.723 11.064 48.073 11.075 C41.66 11.086 35.247 11.092 28.835 11.095 C26.382 11.097 23.93 11.1 21.477 11.106 C18.055 11.113 14.633 11.114 11.211 11.114 C9.674 11.119 9.674 11.119 8.105 11.124 C7.178 11.123 6.251 11.122 5.296 11.12 C4.486 11.121 3.676 11.122 2.841 11.123 C1 11 1 11 0 10 C-0.072 8.314 -0.084 6.625 -0.062 4.938 C-0.053 4.018 -0.044 3.099 -0.035 2.152 C-0.024 1.442 -0.012 0.732 0 0 Z " fill="#7E4B4A" transform="translate(330,67)"/>
<path d="M0 0 C0.33 0.99 0.66 1.98 1 3 C37.3 3 73.6 3 111 3 C110.67 4.98 110.34 6.96 110 9 C73.7 9 37.4 9 0 9 C0 6.03 0 3.06 0 0 Z " fill="#CD453C" transform="translate(330,87)"/>
<path d="M0 0 C14.52 0 29.04 0 44 0 C46.475 4.95 46.475 4.95 49 10 C48.67 10.66 48.34 11.32 48 12 C33.15 12 18.3 12 3 12 C-1 3 -1 3 0 0 Z " fill="#7E3149" transform="translate(133,189)"/>
<path d="M0 0 C0.848 0.004 1.697 0.009 2.571 0.013 C3.531 0.014 4.492 0.014 5.482 0.014 C6.522 0.024 7.561 0.035 8.633 0.045 C9.695 0.048 10.758 0.051 11.852 0.054 C15.256 0.065 18.659 0.09 22.062 0.116 C24.366 0.126 26.669 0.135 28.972 0.143 C34.627 0.165 40.282 0.198 45.937 0.241 C45.295 2.054 44.648 3.866 44 5.678 C43.64 6.687 43.28 7.697 42.91 8.737 C41.937 11.241 41.937 11.241 40.937 12.241 C39.433 12.334 37.925 12.358 36.417 12.354 C34.976 12.354 34.976 12.354 33.506 12.354 C32.461 12.349 31.416 12.343 30.34 12.338 C29.276 12.337 28.212 12.335 27.115 12.334 C23.702 12.328 20.288 12.316 16.875 12.303 C14.567 12.298 12.259 12.293 9.951 12.289 C4.28 12.278 -1.392 12.262 -7.063 12.241 C-6.612 10.613 -6.152 8.989 -5.688 7.366 C-5.433 6.461 -5.177 5.556 -4.914 4.623 C-3.883 1.738 -3.158 0.368 0 0 Z " fill="#B02044" transform="translate(376.0627746582031,140.75949096679688)"/>
<path d="M0 0 C35.97 0 71.94 0 109 0 C109 1.65 109 3.3 109 5 C72.7 5 36.4 5 -1 5 C-0.67 3.35 -0.34 1.7 0 0 Z " fill="#674F4E" transform="translate(332,68)"/>
<path d="M0 0 C0.868 0.002 1.737 0.004 2.631 0.007 C3.612 0.007 4.593 0.007 5.604 0.007 C6.67 0.012 7.737 0.017 8.836 0.023 C9.922 0.024 11.008 0.025 12.127 0.027 C15.612 0.033 19.097 0.045 22.582 0.058 C24.938 0.063 27.294 0.067 29.65 0.071 C35.44 0.082 41.23 0.099 47.02 0.12 C48.291 4.781 47.774 6.838 47.02 12.12 C32.5 12.12 17.98 12.12 3.02 12.12 C2.69 9.81 2.36 7.5 2.02 5.12 C-0.396 2.668 -0.396 2.668 -2.98 1.12 C-1.98 0.12 -1.98 0.12 0 0 Z " fill="#9F1947" transform="translate(514.9804840087891,152.87974548339844)"/>
<path d="M0 0 C13.717 0.038 27.434 0.097 41.151 0.184 C47.521 0.223 53.89 0.256 60.259 0.271 C66.406 0.286 72.553 0.321 78.699 0.368 C81.045 0.383 83.39 0.391 85.735 0.392 C89.02 0.394 92.304 0.421 95.588 0.454 C96.558 0.449 97.528 0.444 98.527 0.439 C104.29 0.528 107.587 1.19 112 5 C112 5.33 112 5.66 112 6 C97.545 6.023 83.089 6.041 68.634 6.052 C61.923 6.057 55.211 6.064 48.5 6.075 C42.029 6.086 35.558 6.092 29.087 6.095 C26.612 6.097 24.137 6.1 21.662 6.106 C18.209 6.113 14.756 6.114 11.303 6.114 C10.269 6.117 9.234 6.121 8.169 6.124 C7.233 6.123 6.298 6.122 5.334 6.12 C4.517 6.121 3.699 6.122 2.857 6.123 C1 6 1 6 0 5 C-0.041 3.334 -0.043 1.666 0 0 Z " fill="#7D4B49" transform="translate(187,72)"/>
<path d="M0 0 C21.78 0.495 21.78 0.495 44 1 C43 8 43 8 41 13 C26.15 13 11.3 13 -4 13 C-3 7 -3 7 0 0 Z " fill="#7E3149" transform="translate(31,188)"/>
<path d="M0 0 C0.965 0.163 1.93 0.326 2.924 0.494 C7.362 1.125 11.74 1.126 16.215 1.098 C17.071 1.096 17.926 1.095 18.808 1.093 C21.518 1.088 24.228 1.075 26.938 1.062 C28.785 1.057 30.632 1.053 32.479 1.049 C36.986 1.038 41.493 1.021 46 1 C47.34 5.709 46.096 7.641 44 12 C37.891 12.769 31.961 13.138 25.809 13.098 C24.978 13.096 24.147 13.095 23.291 13.093 C20.673 13.088 18.055 13.075 15.438 13.062 C13.648 13.057 11.858 13.053 10.068 13.049 C5.712 13.038 1.356 13.021 -3 13 C-4.095 9.304 -3.759 7.746 -2.062 4.25 C-1.682 3.451 -1.302 2.652 -0.91 1.828 C-0.61 1.225 -0.309 0.622 0 0 Z " fill="#C12940" transform="translate(378,129)"/>
<path d="M0 0 C1.772 0 3.544 0.006 5.316 0.016 C6.247 0.017 7.178 0.019 8.137 0.02 C11.122 0.026 14.108 0.038 17.094 0.051 C19.112 0.056 21.131 0.061 23.15 0.065 C28.11 0.076 33.071 0.093 38.031 0.114 C37.916 1.552 37.789 2.989 37.656 4.426 C37.586 5.227 37.517 6.027 37.445 6.852 C37.031 9.114 37.031 9.114 35.031 12.114 C33.044 12.512 33.044 12.512 30.581 12.546 C29.66 12.566 28.74 12.585 27.791 12.606 C26.795 12.612 25.799 12.619 24.773 12.625 C23.755 12.643 22.737 12.661 21.688 12.68 C18.427 12.734 15.167 12.768 11.906 12.801 C9.699 12.834 7.492 12.869 5.285 12.905 C-0.133 12.99 -5.551 13.058 -10.969 13.114 C-6.941 0.199 -6.941 0.199 0 0 Z " fill="#9F1847" transform="translate(726.968994140625,152.886474609375)"/>
<path d="M0 0 C0.878 -0.007 1.756 -0.013 2.66 -0.02 C4.519 -0.03 6.377 -0.035 8.236 -0.035 C11.083 -0.039 13.929 -0.075 16.775 -0.113 C18.579 -0.119 20.383 -0.123 22.188 -0.125 C23.467 -0.147 23.467 -0.147 24.773 -0.169 C30.679 -0.123 30.679 -0.123 33.148 2.231 C33.649 3.273 33.649 3.273 34.16 4.336 C34.546 5.042 34.931 5.749 35.328 6.477 C35.665 7.173 36.001 7.869 36.348 8.586 C36.692 9.292 37.036 9.999 37.391 10.727 C37.645 11.258 37.899 11.789 38.16 12.336 C35.838 13.497 34.525 13.454 31.942 13.437 C31.071 13.433 30.199 13.429 29.302 13.425 C25.326 13.377 21.351 13.327 17.375 13.259 C15.275 13.227 13.175 13.206 11.075 13.195 C8.052 13.18 5.031 13.133 2.008 13.078 C0.597 13.079 0.597 13.079 -0.843 13.081 C-3.279 13.017 -5.474 12.918 -7.84 12.336 C-10.202 9.655 -10.744 8.161 -11.152 4.648 C-10.345 -1.326 -4.734 0.012 0 0 Z " fill="#9F1847" transform="translate(659.83984375,152.6640625)"/>
<path d="M0 0 C0.33 0.99 0.66 1.98 1 3 C1.969 2.837 2.939 2.674 3.938 2.506 C8.3 1.886 12.597 1.874 16.996 1.902 C17.83 1.904 18.663 1.905 19.522 1.907 C22.161 1.912 24.799 1.925 27.438 1.938 C29.236 1.943 31.035 1.947 32.834 1.951 C37.223 1.962 41.611 1.979 46 2 C45.719 3.981 45.425 5.96 45.125 7.938 C44.963 9.04 44.8 10.142 44.633 11.277 C44.424 12.176 44.215 13.074 44 14 C41.603 15.198 40.221 15.087 37.55 15.022 C36.629 15.002 35.709 14.982 34.76 14.961 C33.764 14.934 32.768 14.907 31.742 14.879 C30.724 14.855 29.706 14.832 28.657 14.807 C25.396 14.731 22.136 14.647 18.875 14.562 C16.668 14.509 14.461 14.457 12.254 14.404 C6.836 14.275 1.418 14.14 -4 14 C-3.348 10.624 -2.555 7.441 -1.438 4.188 C-1.168 3.397 -0.899 2.607 -0.621 1.793 C-0.416 1.201 -0.211 0.61 0 0 Z " fill="#B02043" transform="translate(277,139)"/>
<path d="M0 0 C0.66 1.32 1.32 2.64 2 4 C15.53 4 29.06 4 43 4 C43.495 9.94 43.495 9.94 44 16 C29.81 16.33 15.62 16.66 1 17 C-0.533 13.935 -0.103 10.732 -0.062 7.375 C-0.058 6.669 -0.053 5.962 -0.049 5.234 C-0.037 3.49 -0.019 1.745 0 0 Z " fill="#9F1948" transform="translate(577,149)"/>
<path d="M0 0 C0.863 0.488 0.863 0.488 1.743 0.987 C4.114 2.051 5.538 2.239 8.11 2.211 C8.907 2.208 9.705 2.204 10.526 2.201 C11.377 2.187 12.229 2.174 13.105 2.16 C13.985 2.155 14.865 2.15 15.772 2.144 C18.577 2.127 21.382 2.095 24.188 2.062 C27.004 2.035 29.819 2.01 32.636 1.991 C34.387 1.979 36.139 1.961 37.891 1.938 C39.927 1.921 41.964 1.955 44 2 C45 3 45 3 45.098 5.285 C45.086 6.202 45.074 7.118 45.062 8.062 C45.053 8.982 45.044 9.901 45.035 10.848 C45.024 11.558 45.012 12.268 45 13 C39.618 13.905 34.455 14.133 29.004 14.098 C28.17 14.096 27.337 14.095 26.478 14.093 C23.839 14.088 21.201 14.075 18.562 14.062 C16.764 14.057 14.965 14.053 13.166 14.049 C8.777 14.038 4.389 14.021 0 14 C-0.916 10.682 -0.969 8.183 -0.562 4.75 C-0.461 3.858 -0.359 2.966 -0.254 2.047 C-0.17 1.371 -0.086 0.696 0 0 Z " fill="#C22940" transform="translate(278,128)"/>
<path d="M0 0 C13.86 0 27.72 0 42 0 C42 3.96 42 7.92 42 12 C28.47 12 14.94 12 1 12 C0.67 12.99 0.34 13.98 0 15 C0 10.05 0 5.1 0 0 Z " fill="#A01948" transform="translate(777,153)"/>
<path d="M0 0 C0.99 0.99 1.98 1.98 3 3 C6.062 3.238 8.916 3.301 11.973 3.223 C12.852 3.214 13.73 3.205 14.636 3.195 C17.445 3.165 20.254 3.116 23.062 3.062 C25.875 3.015 28.687 2.971 31.5 2.94 C33.251 2.92 35.001 2.891 36.752 2.85 C38.835 2.824 40.919 2.903 43 3 C45 5 45 5 45.195 7.383 C45.172 8.288 45.149 9.193 45.125 10.125 C45.107 11.035 45.089 11.945 45.07 12.883 C45.047 13.581 45.024 14.28 45 15 C38.913 15.025 32.826 15.043 26.738 15.055 C24.666 15.06 22.594 15.067 20.522 15.075 C17.549 15.088 14.575 15.093 11.602 15.098 C10.671 15.103 9.741 15.108 8.783 15.113 C7.922 15.113 7.061 15.113 6.174 15.114 C5.035 15.117 5.035 15.117 3.873 15.12 C2 15 2 15 0 14 C0 9.38 0 4.76 0 0 Z " fill="#C12840" transform="translate(187,127)"/>
<path d="M0 0 C13.86 0 27.72 0 42 0 C42 3.96 42 7.92 42 12 C36.179 12.025 30.359 12.043 24.538 12.055 C22.556 12.06 20.574 12.067 18.593 12.075 C15.75 12.088 12.908 12.093 10.066 12.098 C8.729 12.105 8.729 12.105 7.364 12.113 C5.243 12.113 3.121 12.062 1 12 C0.67 11.67 0.34 11.34 0 11 C0 7.37 0 3.74 0 0 Z " fill="#7F324A" transform="translate(777,189)"/>
<path d="M0 0 C5.927 -0.049 11.853 -0.086 17.78 -0.11 C19.796 -0.12 21.813 -0.134 23.829 -0.151 C26.726 -0.175 29.623 -0.186 32.52 -0.195 C33.423 -0.206 34.326 -0.216 35.257 -0.227 C36.097 -0.227 36.938 -0.227 37.804 -0.227 C38.543 -0.231 39.283 -0.236 40.045 -0.241 C42 0 42 0 45 2 C45 5.3 45 8.6 45 12 C30.15 12 15.3 12 0 12 C0 8.04 0 4.08 0 0 Z " fill="#AE2043" transform="translate(187,141)"/>
<path d="M0 0 C14.52 0 29.04 0 44 0 C44 4.29 44 8.58 44 13 C42.774 12.995 41.547 12.99 40.284 12.984 C35.739 12.966 31.193 12.955 26.648 12.945 C24.68 12.94 22.712 12.933 20.743 12.925 C17.916 12.912 15.089 12.907 12.262 12.902 C11.38 12.897 10.499 12.892 9.591 12.887 C8.77 12.887 7.95 12.887 7.104 12.886 C6.383 12.884 5.661 12.882 4.917 12.88 C2.778 12.932 2.778 12.932 0 14 C0 9.38 0 4.76 0 0 Z " fill="#B02043" transform="translate(648,141)"/>
<path d="M0 0 C0.66 1.32 1.32 2.64 2 4 C1.01 4.495 1.01 4.495 0 5 C0 3.35 0 1.7 0 0 Z M8.765 3.748 C9.552 3.755 10.338 3.762 11.148 3.77 C12.362 3.77 12.362 3.77 13.6 3.771 C15.313 3.774 17.026 3.782 18.739 3.794 C21.358 3.812 23.975 3.815 26.594 3.814 C28.258 3.819 29.922 3.825 31.586 3.832 C32.368 3.833 33.151 3.834 33.957 3.835 C37.536 3.867 40.502 4.126 44 5 C44 8.63 44 12.26 44 16 C38.037 16.025 32.074 16.043 26.111 16.055 C24.08 16.06 22.05 16.067 20.02 16.075 C17.108 16.088 14.197 16.093 11.285 16.098 C9.915 16.105 9.915 16.105 8.517 16.113 C6.344 16.113 4.172 16.062 2 16 C0.411 14.411 0.83 12.752 0.812 10.562 C0.798 9.759 0.784 8.956 0.77 8.129 C1.297 3.254 4.674 3.765 8.765 3.748 Z M0 15 C0.66 15.66 1.32 16.32 2 17 C1.01 17.495 1.01 17.495 0 18 C0 17.01 0 16.02 0 15 Z " fill="#B02043" transform="translate(721,137)"/>
<path d="M0 0 C0.33 0 0.66 0 1 0 C1 2.31 1 4.62 1 7 C1.998 6.838 2.996 6.675 4.024 6.508 C7.898 5.957 11.697 5.871 15.613 5.867 C16.657 5.866 16.657 5.866 17.721 5.864 C19.178 5.864 20.634 5.865 22.09 5.87 C24.324 5.875 26.557 5.87 28.791 5.863 C30.211 5.864 31.631 5.865 33.051 5.867 C34.979 5.869 34.979 5.869 36.947 5.871 C40 6 40 6 42 7 C42.33 5.68 42.66 4.36 43 3 C43 7.95 43 12.9 43 18 C22.21 18.495 22.21 18.495 1 19 C0.128 14.642 -0.104 11.093 -0.062 6.688 C-0.053 5.433 -0.044 4.179 -0.035 2.887 C-0.018 1.458 -0.018 1.458 0 0 Z " fill="#B12144" transform="translate(577,135)"/>
<path d="M0 0 C14.52 0 29.04 0 44 0 C48 8 48 8 48 10 C47.38 10.008 46.761 10.016 46.122 10.025 C39.682 10.11 33.242 10.21 26.802 10.317 C24.398 10.356 21.993 10.391 19.589 10.422 C16.136 10.467 12.683 10.525 9.23 10.586 C8.152 10.597 7.074 10.609 5.963 10.621 C4.962 10.641 3.962 10.661 2.93 10.681 C1.608 10.701 1.608 10.701 0.259 10.722 C-2.281 10.863 -2.281 10.863 -5 13 C-4.546 11.582 -4.086 10.166 -3.625 8.75 C-3.242 7.567 -3.242 7.567 -2.852 6.359 C-2 4 -2 4 0 0 Z " fill="#674E4D" transform="translate(82,63)"/>
<path d="M0 0 C13.86 0 27.72 0 42 0 C45 8 45 8 44 12 C38.482 12.025 32.965 12.043 27.447 12.055 C25.569 12.06 23.691 12.067 21.813 12.075 C19.118 12.088 16.422 12.093 13.727 12.098 C12.884 12.103 12.041 12.108 11.173 12.113 C5.228 12.114 5.228 12.114 3 11 C3 10.01 3 9.02 3 8 C2.34 8 1.68 8 1 8 C0.269 6.023 -0.394 4.019 -1 2 C-0.67 1.34 -0.34 0.68 0 0 Z " fill="#C12940" transform="translate(112,130)"/>
<path d="M0 0 C1.215 -0.001 1.215 -0.001 2.454 -0.003 C4.166 -0.004 5.877 -0.002 7.588 0.002 C10.209 0.008 12.829 0.002 15.449 -0.004 C17.112 -0.003 18.775 -0.002 20.438 0 C21.614 -0.003 21.614 -0.003 22.815 -0.006 C26.044 0.008 28.633 0.104 31.719 1.133 C31.389 4.763 31.059 8.393 30.719 12.133 C16.859 12.133 2.999 12.133 -11.281 12.133 C-11.281 8.503 -11.281 4.873 -11.281 1.133 C-7.494 -0.13 -3.945 -0.01 0 0 Z " fill="#B12144" transform="translate(788.28125,140.8671875)"/>
<path d="M0 0 C13.53 0 27.06 0 41 0 C40 7 40 7 38 12 C24.8 12 11.6 12 -2 12 C-2.66 10.68 -3.32 9.36 -4 8 C-2.68 5.36 -1.36 2.72 0 0 Z M-5 11 C-4.01 11.495 -4.01 11.495 -3 12 C-3.99 12.495 -3.99 12.495 -5 13 C-5 12.34 -5 11.68 -5 11 Z " fill="#C12840" transform="translate(55,130)"/>
<path d="M0 0 C0.69 0.005 1.379 0.009 2.089 0.014 C2.886 0.007 3.682 0 4.503 -0.007 C5.8 0.02 5.8 0.02 7.123 0.048 C8.04 0.047 8.958 0.046 9.903 0.045 C12.933 0.049 15.963 0.088 18.993 0.127 C21.095 0.136 23.196 0.143 25.298 0.148 C30.829 0.167 36.359 0.217 41.889 0.272 C47.533 0.323 53.177 0.346 58.821 0.371 C69.894 0.425 80.967 0.51 92.04 0.615 C91.71 2.265 91.38 3.915 91.04 5.615 C59.03 5.615 27.02 5.615 -5.96 5.615 C-1.96 0.615 -1.96 0.615 0 0 Z " fill="#7D4B49" transform="translate(463.9602241516113,72.38476085662842)"/>
<path d="M0 0 C13.86 0 27.72 0 42 0 C42 3.96 42 7.92 42 12 C27.81 11.67 13.62 11.34 -1 11 C-1 2 -1 2 0 0 Z " fill="#B34941" transform="translate(578,84)"/>
<path d="M0 0 C2.684 2.43 5.016 4.966 7 8 C7 8.66 7 9.32 7 10 C-7.85 10 -22.7 10 -38 10 C-33.744 2.552 -31.374 -0.267 -23.688 -3.312 C-15.137 -4.907 -7.608 -4.598 0 0 Z " fill="#A11947" transform="translate(1012,155)"/>
<path d="M0 0 C13.86 0 27.72 0 42 0 C40.717 6.413 38.13 8.294 33 12 C26.968 15.153 18.884 15.079 12.398 13.277 C7.732 11.35 4.15 9.036 1 5 C0.67 3.35 0.34 1.7 0 0 Z " fill="#7D3249" transform="translate(976,189)"/>
<path d="M0 0 C0.802 -0.005 1.605 -0.011 2.431 -0.016 C5.07 -0.029 7.707 -0.012 10.345 0.006 C12.186 0.005 14.026 0.004 15.866 0.001 C19.717 -0 23.568 0.012 27.418 0.035 C32.35 0.064 37.282 0.061 42.214 0.048 C46.012 0.041 49.809 0.049 53.607 0.061 C55.426 0.066 57.244 0.066 59.063 0.062 C61.605 0.059 64.146 0.076 66.688 0.098 C67.436 0.093 68.185 0.089 68.956 0.084 C73.403 0.147 76.19 0.848 79.779 3.502 C79.449 4.492 79.119 5.482 78.779 6.502 C48.089 6.502 17.399 6.502 -14.221 6.502 C-14.221 5.842 -14.221 5.182 -14.221 4.502 C-9.625 0.632 -5.821 -0.075 0 0 Z " fill="#664E4D" transform="translate(477.220947265625,67.498291015625)"/>
<path d="M0 0 C9.746 -0.093 19.492 -0.164 29.238 -0.207 C33.765 -0.228 38.292 -0.256 42.82 -0.302 C47.203 -0.346 51.586 -0.369 55.969 -0.38 C57.627 -0.387 59.285 -0.401 60.943 -0.423 C72.528 -0.57 82.839 0.867 94 4 C94 4.33 94 4.66 94 5 C62.98 5 31.96 5 0 5 C0 3.35 0 1.7 0 0 Z " fill="#504D4D" transform="translate(187,63)"/>
<path d="M0 0 C21.78 0 43.56 0 66 0 C66.99 2.475 66.99 2.475 68 5 C44.9 5 21.8 5 -2 5 C-1.34 3.35 -0.68 1.7 0 0 Z " fill="#CD453C" transform="translate(71,90)"/>
<path d="M0 0 C1.501 0 1.501 0 3.033 0.001 C4.65 0.024 4.65 0.024 6.3 0.048 C7.406 0.052 8.511 0.056 9.65 0.06 C13.186 0.077 16.721 0.115 20.257 0.153 C22.652 0.168 25.047 0.182 27.443 0.194 C33.318 0.227 39.194 0.277 45.07 0.341 C45.73 1.991 46.39 3.641 47.07 5.341 C46.065 5.353 46.065 5.353 45.04 5.365 C38.081 5.451 31.122 5.551 24.163 5.658 C21.565 5.696 18.966 5.731 16.367 5.762 C12.636 5.808 8.906 5.866 5.175 5.927 C4.009 5.938 2.844 5.95 1.643 5.962 C0.562 5.981 -0.519 6.001 -1.633 6.022 C-2.585 6.035 -3.538 6.048 -4.52 6.062 C-7.191 6.185 -7.191 6.185 -9.93 8.341 C-7.917 2.609 -6.329 -0.048 0 0 Z " fill="#7E4B49" transform="translate(84.930419921875,72.659423828125)"/>
<path d="M0 0 C5.821 -0.025 11.641 -0.043 17.462 -0.055 C19.444 -0.06 21.426 -0.067 23.407 -0.075 C26.25 -0.088 29.092 -0.093 31.934 -0.098 C32.825 -0.103 33.717 -0.108 34.636 -0.113 C36.757 -0.113 38.879 -0.062 41 0 C42 1 42 1 42 6 C28.14 6 14.28 6 0 6 C-0.33 6.66 -0.66 7.32 -1 8 C-0.67 5.36 -0.34 2.72 0 0 Z " fill="#974B45" transform="translate(578,78)"/>
<path d="M0 0 C14.52 0 29.04 0 44 0 C44.66 1.65 45.32 3.3 46 5 C30.16 5 14.32 5 -2 5 C-1.34 3.35 -0.68 1.7 0 0 Z " fill="#504D4D" transform="translate(82,63)"/>
<path d="M0 0 C5.821 -0.025 11.641 -0.043 17.462 -0.055 C19.444 -0.06 21.426 -0.067 23.407 -0.075 C26.25 -0.088 29.092 -0.093 31.934 -0.098 C32.825 -0.103 33.717 -0.108 34.636 -0.113 C36.757 -0.113 38.879 -0.062 41 0 C42 1 42 1 42 6 C27.81 5.67 13.62 5.34 -1 5 C-0.67 3.35 -0.34 1.7 0 0 Z " fill="#CD463C" transform="translate(578,90)"/>
<path d="M0 0 C11.55 0 23.1 0 35 0 C34.13 4.349 33.053 7.163 31 11 C27.179 10.377 24.02 9.22 20.5 7.625 C14.931 5.224 9.463 3.825 3.52 2.676 C2.272 2.341 2.272 2.341 1 2 C0.67 1.34 0.34 0.68 0 0 Z " fill="#E33C36" transform="translate(513,95)"/>
<path d="M0 0 C14.19 0 28.38 0 43 0 C43 1.65 43 3.3 43 5 C28.81 5 14.62 5 0 5 C0 3.35 0 1.7 0 0 Z " fill="#664E4E" transform="translate(577,69)"/>
<path d="M0 0 C1.584 0.002 1.584 0.002 3.199 0.004 C10.584 0.095 17.207 0.741 24.188 3.312 C24.188 3.642 24.188 3.972 24.188 4.312 C9.337 4.312 -5.513 4.312 -20.812 4.312 C-20.812 3.653 -20.812 2.993 -20.812 2.312 C-13.773 0.478 -7.262 -0.037 0 0 Z " fill="#CC453C" transform="translate(706.8125,90.6875)"/>
<path d="M0 0 C3.338 0.556 6.205 1.94 9.25 3.375 C13.775 5.471 18.307 7.318 23 9 C22.67 9.66 22.34 10.32 22 11 C13.75 10.67 5.5 10.34 -3 10 C-1 1 -1 1 0 0 Z " fill="#A01947" transform="translate(460,155)"/>
<path d="M0 0 C1.449 0.002 1.449 0.002 2.928 0.004 C10.089 0.1 16.461 0.906 23.25 3.312 C23.25 3.642 23.25 3.972 23.25 4.312 C8.4 4.312 -6.45 4.312 -21.75 4.312 C-15.134 -0.098 -7.703 -0.043 0 0 Z " fill="#CD453B" transform="translate(909.75,90.6875)"/>
<path d="M0 0 C10.89 0 21.78 0 33 0 C32.67 0.66 32.34 1.32 32 2 C28.269 3.061 24.685 3.117 20.824 3.098 C19.667 3.094 18.51 3.091 17.318 3.088 C16.12 3.08 14.922 3.071 13.688 3.062 C12.47 3.058 11.252 3.053 9.998 3.049 C6.999 3.037 3.999 3.021 1 3 C0.67 2.01 0.34 1.02 0 0 Z " fill="#7C4649" transform="translate(489,201)"/>
<path d="M0 0 C-0.33 1.32 -0.66 2.64 -1 4 C-7.27 4 -13.54 4 -20 4 C-19 2 -19 2 -16.188 0.875 C-10.899 -0.541 -5.427 -0.16 0 0 Z " fill="#CD453B" transform="translate(850,91)"/>
<path d="M0 0 C0.99 0.66 1.98 1.32 3 2 C3 2.66 3 3.32 3 4 C1.35 4 -0.3 4 -2 4 C-2 3.01 -2 2.02 -2 1 C-1.34 0.67 -0.68 0.34 0 0 Z " fill="#9D1848" transform="translate(936,161)"/>
</svg>